<svg xmlns="http://www.w3.org/2000/svg" xmlns:xlink="http://www.w3.org/1999/xlink"><defs>
<linearGradient id="paint0_linear_1_198" x1="7.04852" y1="12.5" x2="13.7873" y2="13.0023" gradientUnits="userSpaceOnUse">
<stop stop-color="#C89AFC"/>
<stop offset="1" stop-color="#7C6AFA"/>
</linearGradient>
<linearGradient id="paint1_linear_1_198" x1="12.3187" y1="78.125" x2="29.4528" y2="102.391" gradientUnits="userSpaceOnUse">
<stop stop-color="#C89AFC"/>
<stop offset="1" stop-color="#7C6AFA"/>
</linearGradient>
<linearGradient id="paint2_linear_1_198" x1="12.3187" y1="84.375" x2="29.4528" y2="108.641" gradientUnits="userSpaceOnUse">
<stop stop-color="#C89AFC"/>
<stop offset="1" stop-color="#7C6AFA"/>
</linearGradient>
<linearGradient id="paint3_linear_1_198" x1="82.5276" y1="12.5" x2="92.4845" y2="15.4686" gradientUnits="userSpaceOnUse">
<stop stop-color="#C89AFC"/>
<stop offset="1" stop-color="#7C6AFA"/>
</linearGradient>
<linearGradient id="paint4_linear_1_198" x1="82.5276" y1="18.75" x2="92.4845" y2="21.7186" gradientUnits="userSpaceOnUse">
<stop stop-color="#C89AFC"/>
<stop offset="1" stop-color="#7C6AFA"/>
</linearGradient>
<linearGradient id="paint5_linear_1_198" x1="82.5276" y1="25" x2="92.4845" y2="27.9686" gradientUnits="userSpaceOnUse">
<stop stop-color="#C89AFC"/>
<stop offset="1" stop-color="#7C6AFA"/>
</linearGradient>
<linearGradient id="paint6_linear_1_198" x1="58.611" y1="26.5625" x2="65.3498" y2="27.0648" gradientUnits="userSpaceOnUse">
<stop stop-color="#C89AFC"/>
<stop offset="1" stop-color="#7C6AFA"/>
</linearGradient>
<linearGradient id="paint7_linear_1_198" x1="77.5552" y1="6.24999" x2="99.2178" y2="6.92986" gradientUnits="userSpaceOnUse">
<stop stop-color="#C89AFC"/>
<stop offset="1" stop-color="#7C6AFA"/>
</linearGradient>
<linearGradient id="paint8_linear_1_198" x1="7.34634" y1="71.875" x2="66.1598" y2="86.279" gradientUnits="userSpaceOnUse">
<stop stop-color="#C89AFC"/>
<stop offset="1" stop-color="#7C6AFA"/>
</linearGradient>
<linearGradient id="paint9_linear_1_198" x1="79.722" y1="71.875" x2="93.2361" y2="72.5945" gradientUnits="userSpaceOnUse">
<stop stop-color="#C89AFC"/>
<stop offset="1" stop-color="#7C6AFA"/>
</linearGradient>
<linearGradient id="paint10_linear_1_198" x1="7.34634" y1="6.24999" x2="69.1841" y2="11.8296" gradientUnits="userSpaceOnUse">
<stop stop-color="#C89AFC"/>
<stop offset="1" stop-color="#7C6AFA"/>
</linearGradient>
<linearGradient id="paint11_linear_1_198" x1="82.5268" y1="43.75" x2="93.3316" y2="44.3934" gradientUnits="userSpaceOnUse">
<stop stop-color="#C89AFC"/>
<stop offset="1" stop-color="#7C6AFA"/>
</linearGradient>
<linearGradient id="paint12_linear_1_198" x1="33.1319" y1="43.75" x2="35.8274" y2="43.9509" gradientUnits="userSpaceOnUse">
<stop stop-color="#C89AFC"/>
<stop offset="1" stop-color="#7C6AFA"/>
</linearGradient>

<linearGradient id="paint0_linear_1_212" x1="44.0694" y1="6.25" x2="46.779" y2="6.30049" gradientUnits="userSpaceOnUse">
<stop stop-color="#C89AFC"/>
<stop offset="1" stop-color="#7C6AFA"/>
</linearGradient>
<linearGradient id="paint1_linear_1_212" x1="53.4444" y1="6.25" x2="56.154" y2="6.30049" gradientUnits="userSpaceOnUse">
<stop stop-color="#C89AFC"/>
<stop offset="1" stop-color="#7C6AFA"/>
</linearGradient>
<linearGradient id="paint2_linear_1_212" x1="32.5967" y1="-1.0863e-05" x2="70.5032" y2="1.23613" gradientUnits="userSpaceOnUse">
<stop stop-color="#C89AFC"/>
<stop offset="1" stop-color="#7C6AFA"/>
</linearGradient>
<linearGradient id="paint3_linear_1_212" x1="37.5683" y1="31.1279" x2="64.6323" y2="32.1872" gradientUnits="userSpaceOnUse">
<stop stop-color="#C89AFC"/>
<stop offset="1" stop-color="#7C6AFA"/>
</linearGradient>

<linearGradient id="paint0_linear_1_12" x1="39.8909" y1="-10.2543" x2="86.1507" y2="54.5852" gradientUnits="userSpaceOnUse">
<stop stop-color="#DF5950"/>
<stop offset="1" stop-color="#451046"/>
</linearGradient>

<linearGradient id="paint0_linear_1_180" x1="4.85168" y1="-0.000474682" x2="40.3752" y2="2.96995" gradientUnits="userSpaceOnUse">
<stop stop-color="#DF5950"/>
<stop offset="1" stop-color="#451046"/>
</linearGradient>
<linearGradient id="paint1_linear_1_180" x1="22.4238" y1="11.1499" x2="40.2335" y2="12.1815" gradientUnits="userSpaceOnUse">
<stop stop-color="#DF5950"/>
<stop offset="1" stop-color="#451046"/>
</linearGradient>
<clipPath id="clip0_1_180">
<rect width="40" height="40" fill="white"/>
</clipPath>

<linearGradient id="paint0_linear_1_217" x1="9.69441" y1="9.375" x2="12.3899" y2="9.57592" gradientUnits="userSpaceOnUse">
<stop stop-color="#C89AFC"/>
<stop offset="1" stop-color="#7C6AFA"/>
</linearGradient>
<linearGradient id="paint1_linear_1_217" x1="9.69441" y1="15.625" x2="12.3899" y2="15.8259" gradientUnits="userSpaceOnUse">
<stop stop-color="#C89AFC"/>
<stop offset="1" stop-color="#7C6AFA"/>
</linearGradient>
<linearGradient id="paint2_linear_1_217" x1="87.8194" y1="81.25" x2="90.5149" y2="81.4509" gradientUnits="userSpaceOnUse">
<stop stop-color="#C89AFC"/>
<stop offset="1" stop-color="#7C6AFA"/>
</linearGradient>
<linearGradient id="paint3_linear_1_217" x1="87.8194" y1="87.5" x2="90.5149" y2="87.7009" gradientUnits="userSpaceOnUse">
<stop stop-color="#C89AFC"/>
<stop offset="1" stop-color="#7C6AFA"/>
</linearGradient>
<linearGradient id="paint4_linear_1_217" x1="10.221" y1="-1.0863e-05" x2="96.4773" y2="6.42932" gradientUnits="userSpaceOnUse">
<stop stop-color="#C89AFC"/>
<stop offset="1" stop-color="#7C6AFA"/>
</linearGradient>
</defs><symbol id="clock" viewBox="0 0 16 16">
  <path d="M8 3.5a.5.5 0 0 0-1 0V9a.5.5 0 0 0 .252.434l3.5 2a.5.5 0 0 0 .496-.868L8 8.71V3.5z"/>
  <path d="M8 16A8 8 0 1 0 8 0a8 8 0 0 0 0 16zm7-8A7 7 0 1 1 1 8a7 7 0 0 1 14 0z"/>
</symbol><symbol id="clouds-fill" viewBox="0 0 16 16">
  <path d="M11.473 9a4.5 4.5 0 0 0-8.72-.99A3 3 0 0 0 3 14h8.5a2.5 2.5 0 1 0-.027-5z"/>
  <path d="M14.544 9.772a3.506 3.506 0 0 0-2.225-1.676 5.502 5.502 0 0 0-6.337-4.002 4.002 4.002 0 0 1 7.392.91 2.5 2.5 0 0 1 1.17 4.769z"/>
</symbol><symbol id="coin" viewBox="0 0 16 16">
  <path d="M5.5 9.511c.076.954.83 1.697 2.182 1.785V12h.6v-.709c1.4-.098 2.218-.846 2.218-1.932 0-.987-.626-1.496-1.745-1.76l-.473-.112V5.57c.6.068.982.396 1.074.85h1.052c-.076-.919-.864-1.638-2.126-1.716V4h-.6v.719c-1.195.117-2.01.836-2.01 1.853 0 .9.606 1.472 1.613 1.707l.397.098v2.034c-.615-.093-1.022-.43-1.114-.9H5.5zm2.177-2.166c-.59-.137-.91-.416-.91-.836 0-.47.345-.822.915-.925v1.76h-.005zm.692 1.193c.717.166 1.048.435 1.048.91 0 .542-.412.914-1.135.982V8.518l.087.02z"/>
  <path d="M8 15A7 7 0 1 1 8 1a7 7 0 0 1 0 14zm0 1A8 8 0 1 0 8 0a8 8 0 0 0 0 16z"/>
  <path d="M8 13.5a5.5 5.5 0 1 1 0-11 5.5 5.5 0 0 1 0 11zm0 .5A6 6 0 1 0 8 2a6 6 0 0 0 0 12z"/>
</symbol><symbol id="computer" viewBox="0 0 100 100">
<path d="M9.375 20.3125H6.25V12.5H14.0625V15.625H9.375V20.3125Z" fill="url(#paint0_linear_1_198)"/>
<path d="M65.625 81.25H62.5V78.125H65.625V81.25ZM59.375 81.25H56.25V78.125H59.375V81.25ZM53.125 81.25H50V78.125H53.125V81.25ZM46.875 81.25H43.75V78.125H46.875V81.25ZM40.625 81.25H37.5V78.125H40.625V81.25ZM34.375 81.25H31.25V78.125H34.375V81.25ZM28.125 81.25H25V78.125H28.125V81.25ZM21.875 81.25H18.75V78.125H21.875V81.25ZM15.625 81.25H12.5V78.125H15.625V81.25ZM9.375 81.25H6.25V78.125H9.375V81.25Z" fill="url(#paint1_linear_1_198)"/>
<path d="M65.625 87.5H62.5V84.375H65.625V87.5ZM59.375 87.5H56.25V84.375H59.375V87.5ZM53.125 87.5H50V84.375H53.125V87.5ZM46.875 87.5H43.75V84.375H46.875V87.5ZM40.625 87.5H37.5V84.375H40.625V87.5ZM34.375 87.5H31.25V84.375H34.375V87.5ZM28.125 87.5H25V84.375H28.125V87.5ZM21.875 87.5H18.75V84.375H21.875V87.5ZM15.625 87.5H12.5V84.375H15.625V87.5ZM9.375 87.5H6.25V84.375H9.375V87.5Z" fill="url(#paint2_linear_1_198)"/>
<path d="M81.25 12.5H93.75V15.625H81.25V12.5Z" fill="url(#paint3_linear_1_198)"/>
<path d="M81.25 18.75H93.75V21.875H81.25V18.75Z" fill="url(#paint4_linear_1_198)"/>
<path d="M81.25 25H93.75V28.125H81.25V25Z" fill="url(#paint5_linear_1_198)"/>
<path d="M65.625 34.375H57.8125V31.25H62.5V26.5625H65.625V34.375Z" fill="url(#paint6_linear_1_198)"/>
<path d="M95.3125 6.25H79.6875C77.0988 6.25 75 8.34885 75 10.9375V65.625H100V10.9375C100 8.34885 97.9012 6.25 95.3125 6.25ZM96.875 62.5H78.125V10.9375C78.125 10.0746 78.8246 9.375 79.6875 9.375H95.3125C96.1754 9.375 96.875 10.0746 96.875 10.9375V62.5Z" fill="url(#paint7_linear_1_198)"/>
<path d="M67.1875 71.875H4.6875C2.09885 71.875 0 73.9738 0 76.5625V89.0625C0 91.6512 2.09885 93.75 4.6875 93.75H67.1875C69.7762 93.75 71.875 91.6512 71.875 89.0625V76.5625C71.875 73.9738 69.7762 71.875 67.1875 71.875ZM68.75 89.0625C68.75 89.9254 68.0504 90.625 67.1875 90.625H4.6875C3.82462 90.625 3.125 89.9254 3.125 89.0625V76.5625C3.125 75.6996 3.82462 75 4.6875 75H67.1875C68.0504 75 68.75 75.6996 68.75 76.5625V89.0625Z" fill="url(#paint8_linear_1_198)"/>
<path d="M85.9375 71.875C81.6246 71.8803 78.1303 75.3746 78.125 79.6875V85.9375C78.125 90.2519 81.6231 93.75 85.9375 93.75C90.2519 93.75 93.75 90.2519 93.75 85.9375V79.6875C93.7447 75.3746 90.2504 71.8803 85.9375 71.875ZM90.625 85.9375C90.625 88.5262 88.5262 90.625 85.9375 90.625C83.3488 90.625 81.25 88.5262 81.25 85.9375V79.6875C81.2584 77.7084 82.5089 75.9476 84.375 75.2876V81.25H87.5V75.2876C89.3661 75.9476 90.6166 77.7084 90.625 79.6875V85.9375Z" fill="url(#paint9_linear_1_198)"/>
<path d="M67.1875 6.25H4.6875C2.09885 6.25 0 8.34885 0 10.9375V48.4375C0 51.0262 2.09885 53.125 4.6875 53.125H26.5625V59.6359C26.561 61.2167 25.2792 62.4985 23.6984 62.5H18.75V65.625H50V62.5H45.0516C43.4708 62.4985 42.189 61.2167 42.1875 59.6359V53.125H67.1875C69.7762 53.125 71.875 51.0262 71.875 48.4375V10.9375C71.875 8.34885 69.7762 6.25 67.1875 6.25ZM28.9566 62.5C29.4373 61.6219 29.689 60.6369 29.6875 59.6359V53.125H32.8125V59.7656H35.9375V53.125H39.0625V59.6359C39.061 60.6369 39.3127 61.6219 39.7934 62.5H28.9566ZM68.75 48.4375C68.75 49.3004 68.0504 50 67.1875 50H4.6875C3.82462 50 3.125 49.3004 3.125 48.4375V40.625H68.75V48.4375ZM68.75 37.5H3.125V10.9375C3.125 10.0746 3.82462 9.375 4.6875 9.375H67.1875C68.0504 9.375 68.75 10.0746 68.75 10.9375V37.5Z" fill="url(#paint10_linear_1_198)"/>
<path d="M89.0622 47.097V43.75H85.9372V47.097C82.8901 47.8836 80.9026 50.8141 81.2993 53.936C81.6961 57.058 84.3526 59.3987 87.4997 59.3987C90.6469 59.3987 93.3034 57.058 93.7001 53.936C94.0969 50.8141 92.1094 47.8836 89.0622 47.097ZM87.4997 56.25C86.0875 56.2538 84.8493 55.307 84.4831 53.9429C84.1169 52.5787 84.7135 51.1391 85.9372 50.4341V53.125H89.0622V50.4341C90.286 51.1391 90.8826 52.5787 90.5164 53.9429C90.1502 55.307 88.9119 56.2538 87.4997 56.25Z" fill="url(#paint11_linear_1_198)"/>
<path d="M32.8125 43.75H35.9375V46.875H32.8125V43.75Z" fill="url(#paint12_linear_1_198)"/>

</symbol><symbol id="flesh" viewBox="0 0 100 100">
<path d="M43.75 6.25H46.875V18.75H43.75V6.25Z" fill="url(#paint0_linear_1_212)"/>
<path d="M53.125 6.25H56.25V18.75H53.125V6.25Z" fill="url(#paint1_linear_1_212)"/>
<path d="M65.625 21.875V0H34.375V21.875H28.125V100H71.875V21.875H65.625ZM37.5 3.125H62.5V21.875H37.5V3.125ZM68.75 96.875H31.25V25H68.75V96.875Z" fill="url(#paint2_linear_1_212)"/>
<path d="M37.4999 62.2124V71.3425L48.4374 76.03V81.5376C46.2852 82.2983 44.9935 84.4994 45.3795 86.7493C45.7656 88.9999 47.7172 90.6441 49.9999 90.6441C52.2826 90.6441 54.2342 88.9999 54.6203 86.7493C55.0063 84.4994 53.7147 82.2983 51.5624 81.5376V70.2126L62.4999 60.0563V53.125H65.6249V43.75H56.2499V53.125H59.3749V58.6922L51.5624 65.9485V37.1094L54.6203 40.1672L56.8297 37.9578L49.9999 31.1279L43.1701 37.9578L45.3795 40.1672L48.4374 37.1094V72.6311L40.6249 69.2825V62.2124C42.7772 61.4517 44.0688 59.2506 43.6828 57.0007C43.2967 54.7501 41.3451 53.1059 39.0624 53.1059C36.7797 53.1059 34.8281 54.7501 34.4421 57.0007C34.056 59.2506 35.3477 61.4517 37.4999 62.2124ZM59.3749 46.875H62.4999V50H59.3749V46.875ZM49.9999 84.375C50.8628 84.375 51.5624 85.0746 51.5624 85.9375C51.5624 86.8004 50.8628 87.5 49.9999 87.5C49.137 87.5 48.4374 86.8004 48.4374 85.9375C48.4374 85.0746 49.137 84.375 49.9999 84.375ZM39.0624 56.25C39.9253 56.25 40.6249 56.9496 40.6249 57.8125C40.6249 58.6754 39.9253 59.375 39.0624 59.375C38.1995 59.375 37.4999 58.6754 37.4999 57.8125C37.4999 56.9496 38.1995 56.25 39.0624 56.25Z" fill="url(#paint3_linear_1_212)"/>

</symbol><symbol id="icon-heading" viewBox="0 0 78 78">
<path fill-rule="evenodd" clip-rule="evenodd" d="M53.9903 24.0097C41.9256 11.945 22.3649 11.945 10.3002 24.0097L0.217908 13.9273C17.8509 -3.70565 46.4396 -3.70564 64.0726 13.9273C81.7056 31.5603 81.7056 60.149 64.0726 77.782L53.9903 67.6997C66.055 55.635 66.055 36.0743 53.9903 24.0097Z" fill="url(#paint0_linear_1_12)"/>

</symbol><symbol id="logo" viewBox="0 0 40 40">
<g id="logo" clip-path="url(#clip0_1_180)">
<g id="Group">
<path id="Vector" d="M39.9023 37.3864L38.2047 31.3961C37.87 30.2157 37.9309 28.9531 38.4116 27.8244C39.525 25.2111 40.097 22.3149 39.9875 19.2726C39.6102 8.70976 30.9275 0.19135 20.3617 0.00272783C9.02914 -0.198063 -0.198124 9.0292 0.00266679 20.3617C0.191289 30.9276 8.7097 39.6103 19.2695 39.9875C21.9284 40.0818 24.4748 39.6559 26.8204 38.8041C28.6884 38.1256 30.7176 38.01 32.6282 38.5546L37.3802 39.9054C38.9166 40.3435 40.3373 38.9227 39.9023 37.3864ZM11.0644 19.9997C11.0644 15.0651 15.065 11.0645 19.9996 11.0645C24.9342 11.0645 28.9348 15.0651 28.9348 19.9997C28.9348 24.9343 24.9342 28.9349 19.9996 28.9349C15.065 28.9349 11.0644 24.9343 11.0644 19.9997Z" fill="url(#paint0_linear_1_180)"/>
<path id="Vector_2" d="M37.8916 29.0203C37.8916 29.0203 37.8217 28.7982 37.6848 28.4027C36.62 25.3848 31.442 12.3181 21.2047 11.1499C25.5704 11.7371 28.9351 15.476 28.9351 19.9999C28.9351 24.9345 24.9345 28.9351 19.9999 28.9351V39.9969C22.3942 39.9969 24.6911 39.5801 26.8208 38.8073C28.6887 38.1289 30.7179 38.0133 32.6285 38.5579L37.3805 39.9086C38.9169 40.3437 40.3376 38.926 39.9026 37.3866L38.205 31.3963C38.0042 30.6936 37.9494 29.9573 38.0377 29.2424L37.8916 29.0203Z" fill="url(#paint1_linear_1_180)"/>
</g>
</g>

</symbol><symbol id="usb" viewBox="0 0 100 100">
<path d="M9.375 9.375H12.5V12.5H9.375V9.375Z" fill="url(#paint0_linear_1_217)"/>
<path d="M9.375 15.625H12.5V18.75H9.375V15.625Z" fill="url(#paint1_linear_1_217)"/>
<path d="M87.5 81.25H90.625V84.375H87.5V81.25Z" fill="url(#paint2_linear_1_217)"/>
<path d="M87.5 87.5H90.625V90.625H87.5V87.5Z" fill="url(#paint3_linear_1_217)"/>
<path d="M84.375 71.875H60.9375C58.3488 71.875 56.25 73.9738 56.25 76.5625V81.25H46.875V84.375H19.5312C10.4706 84.375 3.125 77.0294 3.125 67.9688C3.125 58.9081 10.4706 51.5625 19.5312 51.5625H80.4688C91.2552 51.5625 100 42.8177 100 32.0312C100 21.2448 91.2552 12.5 80.4688 12.5H53.125V9.375H43.75V4.6875C43.75 2.09885 41.6512 0 39.0625 0H15.625V3.125H0V25H15.625V28.125H39.0625C41.6512 28.125 43.75 26.0262 43.75 23.4375V18.75H53.125V15.625H80.4688C89.5294 15.625 96.875 22.9706 96.875 32.0312C96.875 41.0919 89.5294 48.4375 80.4688 48.4375H19.5312C8.74481 48.4375 0 57.1823 0 67.9688C0 78.7552 8.74481 87.5 19.5312 87.5H46.875V90.625H56.25V95.3125C56.25 97.9012 58.3488 100 60.9375 100H84.375V96.875H100V75H84.375V71.875ZM15.625 21.875H3.125V6.25H15.625V21.875ZM40.625 9.375V23.4375C40.625 24.3004 39.9254 25 39.0625 25H18.75V3.125H39.0625C39.9254 3.125 40.625 3.82462 40.625 4.6875V9.375ZM50 15.625H43.75V12.5H50V15.625ZM56.25 87.5H50V84.375H56.25V87.5ZM81.25 96.875H60.9375C60.0746 96.875 59.375 96.1754 59.375 95.3125V76.5625C59.375 75.6996 60.0746 75 60.9375 75H81.25V96.875ZM96.875 78.125V93.75H84.375V78.125H96.875Z" fill="url(#paint4_linear_1_217)"/>

</symbol></svg>