<svg xmlns="http://www.w3.org/2000/svg" xmlns:xlink="http://www.w3.org/1999/xlink"><defs>
<linearGradient id="paint0_linear_1_12" x1="39.8909" y1="-10.2543" x2="86.1507" y2="54.5852" gradientUnits="userSpaceOnUse">
<stop stop-color="#DF5950"/>
<stop offset="1" stop-color="#451046"/>
</linearGradient>

<linearGradient id="paint0_linear_1_180" x1="4.85168" y1="-0.000474682" x2="40.3752" y2="2.96995" gradientUnits="userSpaceOnUse">
<stop stop-color="#DF5950"/>
<stop offset="1" stop-color="#451046"/>
</linearGradient>
<linearGradient id="paint1_linear_1_180" x1="22.4238" y1="11.1499" x2="40.2335" y2="12.1815" gradientUnits="userSpaceOnUse">
<stop stop-color="#DF5950"/>
<stop offset="1" stop-color="#451046"/>
</linearGradient>
<clipPath id="clip0_1_180">
<rect width="40" height="40" fill="white"/>
</clipPath>
</defs><symbol id="clock" viewBox="0 0 16 16">
  <path d="M8 3.5a.5.5 0 0 0-1 0V9a.5.5 0 0 0 .252.434l3.5 2a.5.5 0 0 0 .496-.868L8 8.71V3.5z"/>
  <path d="M8 16A8 8 0 1 0 8 0a8 8 0 0 0 0 16zm7-8A7 7 0 1 1 1 8a7 7 0 0 1 14 0z"/>
</symbol><symbol id="clouds-fill" viewBox="0 0 16 16">
  <path d="M11.473 9a4.5 4.5 0 0 0-8.72-.99A3 3 0 0 0 3 14h8.5a2.5 2.5 0 1 0-.027-5z"/>
  <path d="M14.544 9.772a3.506 3.506 0 0 0-2.225-1.676 5.502 5.502 0 0 0-6.337-4.002 4.002 4.002 0 0 1 7.392.91 2.5 2.5 0 0 1 1.17 4.769z"/>
</symbol><symbol id="coin" viewBox="0 0 16 16">
  <path d="M5.5 9.511c.076.954.83 1.697 2.182 1.785V12h.6v-.709c1.4-.098 2.218-.846 2.218-1.932 0-.987-.626-1.496-1.745-1.76l-.473-.112V5.57c.6.068.982.396 1.074.85h1.052c-.076-.919-.864-1.638-2.126-1.716V4h-.6v.719c-1.195.117-2.01.836-2.01 1.853 0 .9.606 1.472 1.613 1.707l.397.098v2.034c-.615-.093-1.022-.43-1.114-.9H5.5zm2.177-2.166c-.59-.137-.91-.416-.91-.836 0-.47.345-.822.915-.925v1.76h-.005zm.692 1.193c.717.166 1.048.435 1.048.91 0 .542-.412.914-1.135.982V8.518l.087.02z"/>
  <path d="M8 15A7 7 0 1 1 8 1a7 7 0 0 1 0 14zm0 1A8 8 0 1 0 8 0a8 8 0 0 0 0 16z"/>
  <path d="M8 13.5a5.5 5.5 0 1 1 0-11 5.5 5.5 0 0 1 0 11zm0 .5A6 6 0 1 0 8 2a6 6 0 0 0 0 12z"/>
</symbol><symbol id="icon-heading" viewBox="0 0 78 78">
<path fill-rule="evenodd" clip-rule="evenodd" d="M53.9903 24.0097C41.9256 11.945 22.3649 11.945 10.3002 24.0097L0.217908 13.9273C17.8509 -3.70565 46.4396 -3.70564 64.0726 13.9273C81.7056 31.5603 81.7056 60.149 64.0726 77.782L53.9903 67.6997C66.055 55.635 66.055 36.0743 53.9903 24.0097Z" fill="url(#paint0_linear_1_12)"/>

</symbol><symbol id="logo" viewBox="0 0 40 40">
<g id="logo" clip-path="url(#clip0_1_180)">
<g id="Group">
<path id="Vector" d="M39.9023 37.3864L38.2047 31.3961C37.87 30.2157 37.9309 28.9531 38.4116 27.8244C39.525 25.2111 40.097 22.3149 39.9875 19.2726C39.6102 8.70976 30.9275 0.19135 20.3617 0.00272783C9.02914 -0.198063 -0.198124 9.0292 0.00266679 20.3617C0.191289 30.9276 8.7097 39.6103 19.2695 39.9875C21.9284 40.0818 24.4748 39.6559 26.8204 38.8041C28.6884 38.1256 30.7176 38.01 32.6282 38.5546L37.3802 39.9054C38.9166 40.3435 40.3373 38.9227 39.9023 37.3864ZM11.0644 19.9997C11.0644 15.0651 15.065 11.0645 19.9996 11.0645C24.9342 11.0645 28.9348 15.0651 28.9348 19.9997C28.9348 24.9343 24.9342 28.9349 19.9996 28.9349C15.065 28.9349 11.0644 24.9343 11.0644 19.9997Z" fill="url(#paint0_linear_1_180)"/>
<path id="Vector_2" d="M37.8916 29.0203C37.8916 29.0203 37.8217 28.7982 37.6848 28.4027C36.62 25.3848 31.442 12.3181 21.2047 11.1499C25.5704 11.7371 28.9351 15.476 28.9351 19.9999C28.9351 24.9345 24.9345 28.9351 19.9999 28.9351V39.9969C22.3942 39.9969 24.6911 39.5801 26.8208 38.8073C28.6887 38.1289 30.7179 38.0133 32.6285 38.5579L37.3805 39.9086C38.9169 40.3437 40.3376 38.926 39.9026 37.3866L38.205 31.3963C38.0042 30.6936 37.9494 29.9573 38.0377 29.2424L37.8916 29.0203Z" fill="url(#paint1_linear_1_180)"/>
</g>
</g>

</symbol></svg>